<svg xmlns="http://www.w3.org/2000/svg" width="151" height="56" viewBox="0 0 604 224">
  <path fill="#000000" d="M19.633,136.131 C11.830,136.131 6.139,142.098 6.139,150.451 C6.139,166.607 23.213,181.938 49.651,181.938 C77.006,181.938 101.424,166.332 101.424,139.619 C101.424,120.801 89.307,107.123 70.672,103.359 C86.369,99.963 97.293,89.498 97.293,74.260 C97.293,55.350 81.229,43.508 58.188,43.508 C35.698,43.508 17.981,53.881 12.381,68.477 L12.381,78.758 C18.991,69.211 30.741,63.520 45.153,63.520 C59.565,63.520 68.194,70.129 68.194,81.145 C68.194,92.619 57.912,100.973 33.219,103.084 L33.219,113.824 C56.444,113.916 69.938,124.932 69.938,142.465 C69.938,157.979 57.912,167.709 43.317,167.709 C35.881,167.709 29.272,165.139 24.866,161.008 C29.639,159.264 32.944,154.674 32.944,149.350 C32.944,141.730 27.252,136.131 19.633,136.131 Z M128.871,136.865 C121.069,136.865 115.377,143.016 115.377,151.369 C115.377,166.975 131.258,181.938 157.787,181.938 C185.510,181.938 209.928,164.129 209.928,135.947 C209.928,110.795 190.375,95.740 167.243,95.740 C153.289,95.740 141.723,100.146 135.389,106.297 L143.926,70.221 L203.502,70.221 L204.787,46.445 L134.838,46.445 L120.885,121.076 L132.727,121.260 C136.491,116.211 144.110,112.355 154.666,112.355 C168.436,112.355 179.084,123.830 179.084,139.986 C179.084,157.428 167.151,167.709 152.555,167.709 C145.119,167.709 138.602,165.598 134.196,161.742 C138.877,159.998 142.182,155.408 142.182,150.084 C142.182,142.465 136.491,136.865 128.871,136.865 Z M266.383,83.348 L223.881,88.672 L223.881,98.035 L230.582,99.779 C235.723,101.156 236.549,102.625 236.549,107.949 L236.549,160.090 C236.549,166.148 234.897,167.709 223.881,168.902 L223.881,179.000 L277.491,179.000 L277.491,168.902 C268.311,167.801 266.934,166.424 266.934,160.549 L266.934,107.215 C270.514,102.166 276.114,99.504 283.182,99.504 C293.555,99.504 300.073,106.113 300.073,118.689 L300.073,160.549 C300.073,166.424 298.787,167.801 289.516,168.902 L289.516,179.000 L341.014,179.000 L341.014,168.902 C331.743,167.801 330.457,166.424 330.457,160.549 L330.457,112.080 C330.457,110.152 330.366,108.316 330.090,106.664 C333.670,101.799 339.178,99.504 346.338,99.504 C356.895,99.504 363.596,106.113 363.596,118.689 L363.596,160.549 C363.596,166.424 362.219,167.801 353.039,168.902 L353.039,179.000 L406.649,179.000 L406.649,168.902 C395.633,167.709 393.981,166.148 393.981,160.090 L393.981,113.916 C393.981,93.721 381.037,82.521 361.485,82.521 C345.879,82.521 334.037,89.314 328.621,100.146 C324.491,88.488 313.750,82.521 299.246,82.521 C284.100,82.521 272.075,89.314 266.383,99.229 Z M459.248,83.348 L416.746,88.672 L416.746,98.035 L423.448,99.779 C428.588,101.156 429.414,102.625 429.414,107.949 L429.414,160.090 C429.414,166.148 427.762,167.709 416.746,168.902 L416.746,179.000 L470.356,179.000 L470.356,168.902 C461.176,167.801 459.799,166.424 459.799,160.549 L459.799,107.215 C463.379,102.166 468.979,99.504 476.047,99.504 C486.420,99.504 492.938,106.113 492.938,118.689 L492.938,160.549 C492.938,166.424 491.653,167.801 482.381,168.902 L482.381,179.000 L533.879,179.000 L533.879,168.902 C524.608,167.801 523.323,166.424 523.323,160.549 L523.323,112.080 C523.323,110.152 523.231,108.316 522.955,106.664 C526.535,101.799 532.043,99.504 539.203,99.504 C549.760,99.504 556.461,106.113 556.461,118.689 L556.461,160.549 C556.461,166.424 555.084,167.801 545.905,168.902 L545.905,179.000 L599.514,179.000 L599.514,168.902 C588.498,167.709 586.846,166.148 586.846,160.090 L586.846,113.916 C586.846,93.721 573.903,82.521 554.350,82.521 C538.744,82.521 526.903,89.314 521.487,100.146 C517.356,88.488 506.616,82.521 492.112,82.521 C476.965,82.521 464.940,89.314 459.248,99.229 Z"/>
</svg>
