<?xml version="1.0" encoding="UTF-8"?>
<svg version="1.1" xmlns="http://www.w3.org/2000/svg" width="64" height="64">
<path d="M0 0 C2.06724013 0.01608558 4.13252607 0.00008397 6.19970703 -0.01904297 C22.44655369 -0.04650655 22.44655369 -0.04650655 28.14282227 4.70141602 C34.37290107 11.55528244 33.90755059 19.58468103 33.88330078 28.26611328 C33.89941406 29.41208984 33.91552734 30.55806641 33.93212891 31.73876953 C33.93655664 39.43417809 33.82631494 45.94049126 28.28955078 51.80908203 C25.16504131 53.62722332 22.63409041 54.15829676 19.07080078 54.70361328 C14.59023641 55.60985173 11.99955277 56.1585165 9.38330078 60.01611328 C8.78517578 61.12986328 8.18705078 62.24361328 7.57080078 63.39111328 C4.35102505 65.00100115 1.05289818 64.9949452 -2.42919922 64.39111328 C-5.10476734 62.20201209 -7.00164156 59.96667167 -9.05419922 57.20361328 C-11.80688827 55.1028769 -13.47739117 54.91289431 -16.86669922 54.39111328 C-21.4685731 53.66804921 -24.31428419 53.09007488 -27.42919922 49.39111328 C-30.78806403 42.39484366 -30.88255967 36.0704372 -30.80419922 28.39111328 C-30.81580078 27.25416016 -30.82740234 26.11720703 -30.83935547 24.94580078 C-30.81347988 17.51088028 -30.572962 10.8122669 -25.30419922 5.07861328 C-17.20310177 0.3236213 -9.23221055 -0.08542259 0 0 Z M-21.92919922 11.82861328 C-24.97223327 17.02712978 -24.64495086 22.26751964 -24.67919922 28.14111328 C-24.69982422 29.00994141 -24.72044922 29.87876953 -24.74169922 30.77392578 C-24.77708777 36.66611958 -23.98382576 41.05182273 -21.42919922 46.39111328 C-18.68390871 47.8291226 -16.33968728 48.2783388 -13.28466797 48.65673828 C-7.10946053 49.62457318 -4.49154467 51.80826035 -0.64404297 56.71142578 C-0.24314453 57.26572266 0.15775391 57.82001953 0.57080078 58.39111328 C3.6988082 57.03477811 4.52384862 56.46467166 6.44580078 53.45361328 C9.83683708 49.01092648 15.17658401 49.0357792 20.39111328 48.32470703 C23.7050124 47.68226692 23.7050124 47.68226692 25.43798828 45.05126953 C27.77355819 39.56670709 27.78645825 34.53085711 27.82080078 28.64111328 C27.84142578 27.77228516 27.86205078 26.90345703 27.88330078 26.00830078 C27.91871913 20.1111456 27.13096032 15.73327289 24.57080078 10.39111328 C17.59990187 5.79328634 10.4587956 6.17834899 2.38330078 6.14111328 C0.73491211 6.11017578 0.73491211 6.11017578 -0.94677734 6.07861328 C-8.63527078 6.04193591 -16.17613908 6.21937965 -21.92919922 11.82861328 Z " fill="#000000" transform="translate(30.42919921875,-0.39111328125)"/>
<path d="M0 0 C1.25159912 0.00523682 2.50319824 0.01047363 3.79272461 0.01586914 C4.78942421 0.01799156 4.78942421 0.01799156 5.80625916 0.02015686 C7.93590735 0.02577021 10.06545175 0.03832485 12.19506836 0.05102539 C13.63582205 0.05603868 15.07657739 0.06060188 16.51733398 0.06469727 C20.05577938 0.07574394 23.59416375 0.09301747 27.13256836 0.11352539 C27.51475603 1.76967196 27.84651938 3.43809563 28.13256836 5.11352539 C27.13256836 6.11352539 27.13256836 6.11352539 24.26513672 6.22705078 C23.0135376 6.22181396 21.76193848 6.21657715 20.47241211 6.21118164 C19.47571251 6.20905922 19.47571251 6.20905922 18.45887756 6.20689392 C16.32922937 6.20128057 14.19968496 6.18872593 12.07006836 6.17602539 C10.62931467 6.1710121 9.18855933 6.1664489 7.74780273 6.16235352 C4.20935734 6.15130684 0.67097297 6.13403331 -2.86743164 6.11352539 C-3.24961931 4.45737882 -3.58138266 2.78895515 -3.86743164 1.11352539 C-2.86743164 0.11352539 -2.86743164 0.11352539 0 0 Z " fill="#000000" transform="translate(19.867431640625,28.886474609375)"/>
<path d="M0 0 C0.98871094 -0.01417969 1.97742188 -0.02835938 2.99609375 -0.04296875 C5.5625 0.1875 5.5625 0.1875 7.5625 2.1875 C7.2325 3.5075 6.9025 4.8275 6.5625 6.1875 C2.2725 6.1875 -2.0175 6.1875 -6.4375 6.1875 C-6.4375 -0.53429803 -6.0641933 0.03942909 0 0 Z " fill="#000000" transform="translate(22.4375,17.8125)"/>
</svg>
